REM DIRINDEX 1\2,1\3,1\4,1\5\6,1\5\7,1\8
REM DIRNAME cjc115,folder01,folder02,folder03,folder04,folder05,folder06,folder07
TITLE ""
FILE "063 Åy063ÅzUnit4 (0709 betray_0720 liberate).mp3" MP3
  TRACK 01 AUDIO
    TITLE "0:"
    INDEX 01 00:00:00
  TRACK 02 AUDIO
    TITLE "2:cjc115_2470"
    INDEX 01 00:00:07
  TRACK 03 AUDIO
    TITLE "0:"
    INDEX 01 00:01:21
  TRACK 04 AUDIO
    TITLE "3:cjc115_2471"
    INDEX 01 00:01:28
  TRACK 05 AUDIO
    TITLE "0:"
    INDEX 01 00:02:47
  TRACK 06 AUDIO
    TITLE "4:cjc115_2472"
    INDEX 01 00:02:57
  TRACK 07 AUDIO
    TITLE "0:"
    INDEX 01 00:07:25
  TRACK 08 AUDIO
    TITLE "2:cjc115_2473"
    INDEX 01 00:08:32
  TRACK 09 AUDIO
    TITLE "0:"
    INDEX 01 00:09:65
  TRACK 10 AUDIO
    TITLE "3:cjc115_2474"
    INDEX 01 00:09:71
  TRACK 11 AUDIO
    TITLE "0:"
    INDEX 01 00:11:19
  TRACK 12 AUDIO
    TITLE "4:cjc115_2475"
    INDEX 01 00:11:35
  TRACK 13 AUDIO
    TITLE "0:"
    INDEX 01 00:14:31
  TRACK 14 AUDIO
    TITLE "2:cjc115_2476"
    INDEX 01 00:15:40
  TRACK 15 AUDIO
    TITLE "0:"
    INDEX 01 00:16:59
  TRACK 16 AUDIO
    TITLE "3:cjc115_2477"
    INDEX 01 00:16:67
  TRACK 17 AUDIO
    TITLE "0:"
    INDEX 01 00:19:07
  TRACK 18 AUDIO
    TITLE "4:cjc115_2478"
    INDEX 01 00:19:16
  TRACK 19 AUDIO
    TITLE "0:"
    INDEX 01 00:23:40
  TRACK 20 AUDIO
    TITLE "2:cjc115_2479"
    INDEX 01 00:24:53
  TRACK 21 AUDIO
    TITLE "0:"
    INDEX 01 00:26:05
  TRACK 22 AUDIO
    TITLE "3:cjc115_2480"
    INDEX 01 00:26:13
  TRACK 23 AUDIO
    TITLE "0:"
    INDEX 01 00:27:30
  TRACK 24 AUDIO
    TITLE "4:cjc115_2481"
    INDEX 01 00:27:39
  TRACK 25 AUDIO
    TITLE "0:"
    INDEX 01 00:31:39
  TRACK 26 AUDIO
    TITLE "2:cjc115_2482"
    INDEX 01 00:32:45
  TRACK 27 AUDIO
    TITLE "0:"
    INDEX 01 00:33:52
  TRACK 28 AUDIO
    TITLE "3:cjc115_2483"
    INDEX 01 00:33:62
  TRACK 29 AUDIO
    TITLE "0:"
    INDEX 01 00:36:21
  TRACK 30 AUDIO
    TITLE "4:cjc115_2484"
    INDEX 01 00:36:25
  TRACK 31 AUDIO
    TITLE "0:"
    INDEX 01 00:40:58
  TRACK 32 AUDIO
    TITLE "2:cjc115_2485"
    INDEX 01 00:41:67
  TRACK 33 AUDIO
    TITLE "0:"
    INDEX 01 00:43:13
  TRACK 34 AUDIO
    TITLE "3:cjc115_2486"
    INDEX 01 00:43:19
  TRACK 35 AUDIO
    TITLE "0:"
    INDEX 01 00:45:30
  TRACK 36 AUDIO
    TITLE "4:cjc115_2487"
    INDEX 01 00:45:39
  TRACK 37 AUDIO
    TITLE "0:"
    INDEX 01 00:49:16
  TRACK 38 AUDIO
    TITLE "2:cjc115_2488"
    INDEX 01 00:50:25
  TRACK 39 AUDIO
    TITLE "0:"
    INDEX 01 00:51:24
  TRACK 40 AUDIO
    TITLE "3:cjc115_2489"
    INDEX 01 00:51:30
  TRACK 41 AUDIO
    TITLE "0:"
    INDEX 01 00:53:47
  TRACK 42 AUDIO
    TITLE "4:cjc115_2490"
    INDEX 01 00:53:57
  TRACK 43 AUDIO
    TITLE "0:"
    INDEX 01 00:57:66
  TRACK 44 AUDIO
    TITLE "2:cjc115_2491"
    INDEX 01 00:58:73
  TRACK 45 AUDIO
    TITLE "0:"
    INDEX 01 01:00:21
  TRACK 46 AUDIO
    TITLE "3:cjc115_2492"
    INDEX 01 01:00:29
  TRACK 47 AUDIO
    TITLE "0:"
    INDEX 01 01:02:55
  TRACK 48 AUDIO
    TITLE "4:cjc115_2493"
    INDEX 01 01:02:57
  TRACK 49 AUDIO
    TITLE "0:"
    INDEX 01 01:07:19
  TRACK 50 AUDIO
    TITLE "2:cjc115_2494"
    INDEX 01 01:08:27
  TRACK 51 AUDIO
    TITLE "0:"
    INDEX 01 01:09:38
  TRACK 52 AUDIO
    TITLE "3:cjc115_2495"
    INDEX 01 01:09:50
  TRACK 53 AUDIO
    TITLE "0:"
    INDEX 01 01:13:42
  TRACK 54 AUDIO
    TITLE "4:cjc115_2496"
    INDEX 01 01:13:49
  TRACK 55 AUDIO
    TITLE "0:"
    INDEX 01 01:18:68
  TRACK 56 AUDIO
    TITLE "2:cjc115_2497"
    INDEX 01 01:20:00
  TRACK 57 AUDIO
    TITLE "0:"
    INDEX 01 01:21:23
  TRACK 58 AUDIO
    TITLE "3:cjc115_2498"
    INDEX 01 01:21:33
  TRACK 59 AUDIO
    TITLE "0:"
    INDEX 01 01:23:30
  TRACK 60 AUDIO
    TITLE "4:cjc115_2499"
    INDEX 01 01:23:40
  TRACK 61 AUDIO
    TITLE "0:"
    INDEX 01 01:27:63
  TRACK 62 AUDIO
    TITLE "2:cjc115_2500"
    INDEX 01 01:28:71
  TRACK 63 AUDIO
    TITLE "0:"
    INDEX 01 01:29:74
  TRACK 64 AUDIO
    TITLE "3:cjc115_2501"
    INDEX 01 01:30:11
  TRACK 65 AUDIO
    TITLE "0:"
    INDEX 01 01:32:39
  TRACK 66 AUDIO
    TITLE "4:cjc115_2502"
    INDEX 01 01:32:47
  TRACK 67 AUDIO
    TITLE "0:"
    INDEX 01 01:35:67
  TRACK 68 AUDIO
    TITLE "2:cjc115_2503"
    INDEX 01 01:36:74
  TRACK 69 AUDIO
    TITLE "0:"
    INDEX 01 01:38:14
  TRACK 70 AUDIO
    TITLE "3:cjc115_2504"
    INDEX 01 01:38:24
  TRACK 71 AUDIO
    TITLE "0:"
    INDEX 01 01:40:60
  TRACK 72 AUDIO
    TITLE "4:cjc115_2505"
    INDEX 01 01:40:70
  TRACK 73 AUDIO
    TITLE "0:"
    INDEX 01 01:44:48
